<svg id="svg" version="1.1" xmlns="http://www.w3.org/2000/svg" xmlns:xlink="http://www.w3.org/1999/xlink" width="400" height="400" viewBox="0, 0, 400,400"><g id="svgg"><path id="path0" d="M207.500 156.093 C 207.500 156.409,210.601 160.843,211.162 161.330 C 211.348 161.491,211.500 161.668,211.500 161.723 C 211.500 161.813,212.523 162.836,213.538 163.762 C 218.680 168.448,226.579 168.568,232.653 164.052 C 232.817 163.929,230.818 163.127,229.833 162.921 C 229.695 162.892,229.095 162.705,228.499 162.506 C 227.904 162.307,227.284 162.116,227.122 162.081 C 226.960 162.046,226.285 161.835,225.622 161.611 C 224.959 161.387,223.517 160.927,222.417 160.588 C 221.317 160.249,219.854 159.784,219.167 159.556 C 218.479 159.328,217.804 159.117,217.667 159.087 C 217.529 159.058,216.892 158.860,216.250 158.648 C 215.608 158.436,215.046 158.257,215.000 158.250 C 214.867 158.229,211.035 157.011,209.667 156.554 C 208.266 156.087,207.500 155.924,207.500 156.093 " stroke="none" fill="#04fbfb" fill-rule="evenodd"></path><path id="path1" d="M0.000 199.917 L 0.000 399.833 199.917 399.833 L 399.833 399.833 399.833 199.917 L 399.833 0.000 199.917 0.000 L 0.000 0.000 0.000 199.917 M399.500 200.000 L 399.500 399.500 200.000 399.500 L 0.500 399.500 0.500 200.000 L 0.500 0.500 200.000 0.500 L 399.500 0.500 399.500 200.000 M137.853 106.833 L 71.123 106.917 71.687 107.587 C 71.997 107.956,72.484 108.518,72.770 108.837 C 73.335 109.467,74.864 111.242,76.367 113.010 C 76.889 113.625,77.270 114.174,77.214 114.231 C 77.157 114.287,77.197 114.333,77.302 114.333 C 77.406 114.333,77.737 114.606,78.038 114.940 C 78.338 115.274,78.659 115.630,78.751 115.732 C 78.843 115.833,79.253 116.329,79.663 116.833 C 80.703 118.113,81.016 118.467,81.542 118.959 C 81.794 119.196,81.975 119.414,81.944 119.445 C 81.912 119.477,82.160 119.789,82.494 120.140 C 82.828 120.492,83.770 121.560,84.586 122.514 C 85.403 123.469,86.112 124.287,86.162 124.333 C 86.211 124.379,86.664 124.904,87.167 125.500 C 88.092 126.594,90.169 128.996,90.988 129.917 C 91.940 130.987,94.619 134.087,95.291 134.897 L 95.999 135.750 97.291 135.837 C 98.002 135.885,100.908 135.828,103.750 135.710 C 106.592 135.591,109.779 135.506,110.833 135.520 C 111.888 135.534,116.425 135.479,120.917 135.398 C 131.258 135.211,139.957 135.210,149.167 135.397 C 153.154 135.478,156.904 135.531,157.500 135.515 C 158.096 135.499,160.170 135.569,162.110 135.671 C 164.050 135.772,166.225 135.857,166.943 135.860 C 167.662 135.863,169.337 135.938,170.667 136.026 C 175.332 136.337,175.922 136.369,176.605 136.351 C 176.984 136.341,178.328 136.442,179.592 136.575 C 180.856 136.709,181.952 136.779,182.028 136.733 C 182.103 136.686,183.234 136.772,184.541 136.923 C 185.848 137.075,187.179 137.198,187.500 137.197 C 187.821 137.197,188.608 137.265,189.250 137.349 C 189.892 137.433,191.017 137.540,191.750 137.588 C 192.483 137.635,193.717 137.777,194.491 137.902 C 195.265 138.028,195.978 138.101,196.075 138.065 C 196.171 138.029,196.846 138.104,197.575 138.232 C 198.304 138.359,198.991 138.429,199.100 138.387 C 199.210 138.345,199.345 138.384,199.400 138.473 C 199.455 138.562,199.632 138.602,199.792 138.560 C 199.952 138.519,200.606 138.595,201.245 138.730 C 201.884 138.865,202.458 138.943,202.521 138.903 C 202.585 138.864,203.142 138.938,203.761 139.068 C 204.379 139.197,204.978 139.267,205.092 139.224 C 205.206 139.180,205.350 139.225,205.411 139.325 C 205.473 139.424,205.588 139.465,205.667 139.416 C 205.747 139.367,206.159 139.405,206.584 139.500 C 207.009 139.595,207.692 139.707,208.102 139.749 C 208.511 139.790,209.132 139.901,209.481 139.995 C 209.830 140.089,210.449 140.200,210.857 140.241 C 211.265 140.282,211.808 140.395,212.064 140.492 C 212.319 140.590,212.587 140.632,212.660 140.587 C 212.733 140.542,213.164 140.616,213.617 140.751 C 214.071 140.886,214.752 141.035,215.129 141.082 C 215.507 141.130,216.000 141.238,216.224 141.324 C 216.449 141.409,216.665 141.446,216.706 141.406 C 216.746 141.365,217.197 141.476,217.709 141.652 C 218.220 141.828,218.671 141.940,218.710 141.901 C 218.749 141.862,219.086 141.937,219.459 142.069 C 219.832 142.200,220.169 142.275,220.209 142.236 C 220.249 142.196,220.612 142.282,221.016 142.428 C 221.420 142.573,221.958 142.720,222.212 142.755 C 222.466 142.790,222.749 142.865,222.840 142.921 C 222.931 142.977,223.180 143.055,223.393 143.093 C 223.606 143.132,224.336 143.353,225.015 143.585 C 226.493 144.090,226.435 144.072,227.167 144.240 C 227.487 144.314,228.050 144.526,228.417 144.712 C 228.783 144.897,229.105 145.030,229.132 145.007 C 229.183 144.964,229.943 145.230,230.667 145.545 C 231.131 145.747,231.079 145.729,231.708 145.907 C 231.960 145.978,232.167 146.091,232.167 146.157 C 232.167 146.223,232.267 146.278,232.390 146.278 C 232.685 146.278,236.400 148.088,237.250 148.646 C 237.617 148.886,238.104 149.181,238.333 149.299 C 241.004 150.684,245.833 155.795,245.833 157.237 C 245.833 157.371,245.899 157.521,245.980 157.571 C 246.129 157.663,246.461 158.793,246.643 159.833 C 246.902 161.306,246.731 164.892,246.356 165.864 C 246.193 166.286,246.781 166.678,247.362 166.536 C 247.423 166.521,247.886 166.651,248.389 166.824 C 248.893 166.997,249.341 167.103,249.385 167.060 C 249.428 167.016,249.716 167.085,250.024 167.213 C 250.331 167.341,250.677 167.415,250.792 167.376 C 250.906 167.337,251.000 167.391,251.000 167.496 C 251.000 167.601,251.073 167.641,251.163 167.585 C 251.253 167.530,251.468 167.560,251.640 167.653 C 251.813 167.745,252.200 167.864,252.500 167.917 C 252.800 167.970,253.176 168.082,253.334 168.167 C 253.493 168.252,253.670 168.274,253.728 168.216 C 253.786 168.158,253.833 168.203,253.833 168.315 C 253.833 168.428,253.906 168.475,253.995 168.420 C 254.084 168.365,254.384 168.437,254.662 168.581 C 254.939 168.724,255.167 168.806,255.167 168.763 C 255.167 168.720,255.673 168.872,256.292 169.102 C 256.910 169.331,257.543 169.547,257.698 169.581 C 257.852 169.615,258.152 169.740,258.364 169.857 C 258.576 169.975,258.787 170.075,258.833 170.079 C 258.879 170.084,259.179 170.188,259.500 170.310 C 263.072 171.677,267.565 174.189,270.083 176.227 C 271.344 177.247,273.831 179.722,273.832 179.958 C 273.833 180.073,273.892 180.167,273.964 180.167 C 274.213 180.167,276.377 183.397,276.420 183.833 C 276.425 183.879,276.525 184.090,276.642 184.302 C 276.920 184.803,277.704 186.844,277.743 187.167 C 277.759 187.304,277.866 187.696,277.981 188.038 C 278.096 188.380,278.146 188.731,278.092 188.819 C 278.039 188.906,278.062 189.019,278.145 189.070 C 278.344 189.193,278.347 193.139,278.148 193.261 C 278.064 193.314,278.034 193.420,278.082 193.498 C 278.130 193.575,278.087 193.851,277.986 194.111 C 277.885 194.371,277.768 194.771,277.725 195.000 C 277.682 195.229,277.537 195.585,277.403 195.792 C 277.269 195.998,277.199 196.167,277.249 196.167 C 277.418 196.167,276.465 197.913,275.544 199.292 C 275.039 200.048,274.560 200.667,274.480 200.667 C 274.399 200.667,274.333 200.761,274.333 200.876 C 274.333 201.532,268.415 206.715,265.293 208.794 C 263.740 209.828,263.817 209.847,263.951 208.464 C 264.387 203.935,262.736 200.724,258.917 198.674 C 258.550 198.477,258.137 198.251,258.000 198.172 C 257.432 197.844,255.077 196.891,254.500 196.755 C 254.362 196.723,253.650 196.530,252.917 196.326 C 252.183 196.123,251.433 195.935,251.250 195.909 C 251.067 195.883,250.879 195.846,250.833 195.827 C 250.787 195.809,250.685 195.806,250.606 195.820 C 250.526 195.835,250.226 195.771,249.939 195.678 C 249.652 195.585,248.978 195.468,248.442 195.418 C 247.905 195.368,247.155 195.264,246.775 195.186 C 246.395 195.109,245.915 195.037,245.708 195.026 C 245.502 195.016,245.202 195.001,245.042 194.993 C 244.881 194.985,244.046 194.902,243.185 194.808 C 241.101 194.582,233.052 194.575,230.750 194.797 C 229.742 194.894,228.748 194.979,228.542 194.987 C 227.737 195.015,227.358 195.054,225.695 195.275 C 224.748 195.400,223.923 195.472,223.862 195.435 C 223.800 195.397,223.150 195.473,222.417 195.603 C 221.683 195.734,220.952 195.808,220.792 195.769 C 220.632 195.730,220.454 195.772,220.398 195.863 C 220.342 195.955,220.156 195.992,219.985 195.948 C 219.814 195.903,219.392 195.934,219.046 196.016 C 218.700 196.099,217.971 196.207,217.426 196.256 C 216.881 196.306,216.106 196.420,215.704 196.510 C 215.303 196.600,214.653 196.704,214.261 196.741 C 213.869 196.778,213.235 196.892,212.853 196.995 C 212.471 197.097,212.091 197.140,212.008 197.088 C 211.924 197.037,211.809 197.072,211.750 197.167 C 211.691 197.261,211.580 197.300,211.502 197.252 C 211.425 197.204,211.179 197.234,210.956 197.318 C 210.733 197.403,210.220 197.512,209.817 197.561 C 209.413 197.610,208.828 197.726,208.516 197.821 C 208.203 197.915,207.652 198.036,207.290 198.090 C 206.929 198.144,206.442 198.260,206.210 198.349 C 205.977 198.437,205.753 198.475,205.712 198.434 C 205.670 198.393,205.350 198.460,205.000 198.583 C 204.650 198.707,204.113 198.852,203.807 198.905 C 203.500 198.958,202.728 199.146,202.090 199.323 C 201.452 199.499,200.871 199.606,200.798 199.562 C 200.726 199.517,200.667 199.560,200.667 199.657 C 200.667 199.754,200.610 199.815,200.542 199.792 C 200.408 199.748,199.316 200.061,198.292 200.435 C 197.948 200.561,197.667 200.625,197.667 200.578 C 197.667 200.530,197.439 200.609,197.162 200.753 C 196.884 200.896,196.584 200.969,196.495 200.914 C 196.406 200.859,196.333 200.889,196.333 200.981 C 196.333 201.072,196.183 201.119,196.000 201.083 C 195.817 201.048,195.667 201.089,195.667 201.174 C 195.667 201.319,194.305 201.742,194.065 201.671 C 194.004 201.653,193.908 201.705,193.852 201.786 C 193.752 201.931,192.043 202.615,191.441 202.751 C 191.272 202.789,191.047 202.888,190.941 202.971 C 190.731 203.135,189.824 203.404,189.625 203.361 C 189.556 203.346,189.500 203.408,189.500 203.500 C 189.500 203.592,189.427 203.667,189.337 203.667 C 188.952 203.667,183.179 206.486,182.000 207.250 C 181.862 207.339,181.713 207.415,181.667 207.418 C 181.621 207.422,181.151 207.704,180.622 208.046 C 180.093 208.387,179.593 208.667,179.511 208.667 C 179.428 208.667,179.336 208.723,179.306 208.792 C 179.175 209.086,177.650 210.010,177.475 209.901 C 177.365 209.833,177.327 209.854,177.386 209.950 C 177.443 210.042,177.136 210.369,176.703 210.676 C 175.647 211.426,173.110 213.441,172.581 213.950 C 172.467 214.061,172.327 214.117,172.270 214.075 C 172.213 214.034,172.203 214.049,172.247 214.108 C 172.292 214.168,171.316 215.257,170.078 216.529 L 167.829 218.842 168.873 220.071 C 169.447 220.747,170.484 221.968,171.177 222.785 C 171.870 223.602,172.605 224.453,172.810 224.677 C 173.670 225.613,173.978 225.966,174.760 226.917 C 175.212 227.467,175.756 228.056,175.967 228.227 C 176.178 228.398,176.319 228.570,176.279 228.610 C 176.240 228.649,176.404 228.887,176.645 229.137 C 176.886 229.388,177.508 230.078,178.027 230.671 C 178.958 231.736,179.517 232.386,181.889 235.167 C 182.554 235.946,183.344 236.846,183.644 237.167 C 184.626 238.214,185.160 238.951,185.037 239.087 C 184.971 239.160,185.010 239.166,185.125 239.100 C 185.240 239.034,185.335 239.041,185.336 239.115 C 185.338 239.189,185.656 239.596,186.044 240.018 C 187.408 241.503,188.083 242.343,188.042 242.504 C 188.019 242.594,188.062 242.648,188.138 242.625 C 188.306 242.574,190.486 245.037,195.559 251.010 C 196.225 251.795,196.938 252.620,197.144 252.844 C 197.349 253.067,197.688 253.438,197.898 253.667 C 198.107 253.896,198.647 254.533,199.097 255.083 C 199.548 255.633,200.048 256.181,200.208 256.301 C 200.369 256.421,200.500 256.582,200.500 256.659 C 200.500 256.737,200.744 257.051,201.042 257.358 C 201.904 258.246,203.423 260.019,203.350 260.053 C 203.313 260.070,203.538 260.349,203.850 260.674 C 204.825 261.690,205.736 262.713,206.592 263.750 C 207.045 264.300,207.567 264.901,207.750 265.084 C 207.933 265.268,208.646 266.093,209.333 266.918 C 210.021 267.742,210.715 268.515,210.875 268.634 C 211.035 268.754,211.167 268.960,211.167 269.093 C 211.167 269.225,211.233 269.333,211.314 269.333 C 211.395 269.333,211.827 269.772,212.272 270.309 C 213.386 271.649,216.047 274.731,216.178 274.833 C 216.440 275.037,218.001 277.000,217.900 277.000 C 217.839 277.000,217.985 277.154,218.224 277.343 C 218.464 277.532,219.243 278.374,219.955 279.215 C 220.667 280.056,221.362 280.866,221.500 281.014 C 221.637 281.163,222.125 281.723,222.583 282.259 C 223.042 282.795,223.720 283.574,224.090 283.992 C 224.460 284.409,225.168 285.237,225.663 285.833 C 226.158 286.429,226.643 286.992,226.740 287.083 C 227.167 287.486,228.689 289.333,228.594 289.333 C 228.536 289.333,228.740 289.554,229.048 289.824 C 229.794 290.479,231.678 292.767,231.565 292.880 C 231.515 292.929,231.612 293.013,231.779 293.067 C 231.946 293.121,232.233 293.390,232.417 293.665 L 232.750 294.166 281.043 294.166 C 329.294 294.167,329.336 294.166,329.128 293.833 C 329.013 293.650,328.832 293.500,328.724 293.500 C 328.616 293.500,328.503 293.434,328.472 293.354 C 328.442 293.274,327.892 292.811,327.250 292.324 C 326.608 291.838,326.046 291.395,326.000 291.340 C 325.954 291.286,325.579 290.983,325.167 290.667 C 324.754 290.351,324.379 290.048,324.333 289.995 C 324.287 289.942,323.425 289.238,322.417 288.432 C 321.408 287.625,320.396 286.806,320.167 286.611 C 319.938 286.417,319.262 285.890,318.667 285.440 C 318.071 284.990,317.508 284.538,317.417 284.436 C 317.325 284.334,316.950 284.028,316.583 283.757 C 316.217 283.486,315.842 283.177,315.750 283.071 C 315.658 282.965,315.096 282.510,314.500 282.060 C 313.301 281.155,312.629 280.602,312.051 280.049 C 311.839 279.847,311.667 279.714,311.667 279.754 C 311.667 279.859,308.520 277.310,307.805 276.625 C 307.637 276.465,307.498 276.390,307.495 276.458 C 307.492 276.527,307.398 276.468,307.286 276.328 C 307.175 276.187,306.596 275.706,306.000 275.260 C 305.404 274.814,304.842 274.364,304.750 274.261 C 304.658 274.157,303.966 273.598,303.210 273.017 C 302.404 272.398,301.882 271.883,301.945 271.772 C 302.005 271.668,301.992 271.639,301.916 271.708 C 301.745 271.863,300.713 271.103,299.312 269.792 C 299.140 269.631,298.944 269.483,298.875 269.463 C 298.806 269.442,298.600 269.296,298.417 269.137 C 298.233 268.979,297.661 268.527,297.144 268.133 C 295.679 267.015,292.102 264.134,291.917 263.922 C 291.825 263.817,291.337 263.425,290.833 263.050 C 290.329 262.675,289.422 261.967,288.818 261.476 C 288.214 260.985,286.789 259.840,285.652 258.931 C 284.514 258.022,283.508 257.194,283.417 257.091 C 283.325 256.988,282.950 256.682,282.583 256.411 C 282.217 256.140,281.173 255.318,280.265 254.584 C 279.357 253.851,277.782 252.586,276.765 251.774 C 275.748 250.963,274.892 250.231,274.861 250.149 C 274.831 250.067,274.743 250.000,274.667 250.000 C 274.591 250.000,274.353 249.852,274.139 249.671 C 273.925 249.490,272.925 248.681,271.917 247.874 C 267.629 244.441,266.414 243.443,266.361 243.309 C 266.331 243.231,266.206 243.167,266.083 243.167 C 265.961 243.167,265.836 243.110,265.806 243.041 C 265.775 242.972,265.225 242.505,264.583 242.005 C 263.942 241.504,263.267 240.967,263.083 240.812 C 262.900 240.656,262.450 240.272,262.083 239.959 C 261.717 239.646,260.929 239.019,260.333 238.565 C 259.122 237.644,258.452 237.093,257.884 236.549 C 257.673 236.347,257.500 236.214,257.500 236.254 C 257.500 236.332,254.904 234.261,254.518 233.875 C 254.391 233.748,254.110 233.528,253.893 233.386 C 253.166 232.910,253.824 232.462,255.583 232.237 C 255.767 232.214,256.592 232.031,257.417 231.830 C 258.242 231.630,259.029 231.452,259.167 231.433 C 259.434 231.398,260.546 231.094,261.500 230.796 C 261.821 230.696,262.292 230.590,262.548 230.560 C 262.803 230.530,263.148 230.432,263.314 230.344 C 263.480 230.255,263.814 230.147,264.056 230.103 C 264.517 230.019,265.317 229.775,266.375 229.394 C 266.719 229.271,267.000 229.202,267.000 229.243 C 267.000 229.283,267.262 229.207,267.583 229.073 C 267.903 228.939,268.187 228.849,268.213 228.873 C 268.239 228.897,268.558 228.793,268.922 228.643 C 269.726 228.309,273.809 226.848,274.189 226.758 C 274.339 226.722,274.602 226.620,274.773 226.531 C 274.944 226.443,275.908 226.014,276.917 225.580 C 277.925 225.146,279.237 224.565,279.833 224.289 C 280.429 224.013,280.917 223.817,280.917 223.852 C 280.917 223.887,281.142 223.759,281.417 223.568 C 281.922 223.217,282.450 222.978,282.568 223.046 C 282.603 223.067,282.771 222.971,282.941 222.833 C 283.280 222.559,283.318 222.537,285.250 221.505 C 285.983 221.113,286.696 220.701,286.833 220.588 C 286.971 220.476,287.196 220.334,287.333 220.273 C 287.877 220.030,291.288 217.708,291.425 217.487 C 291.479 217.399,291.593 217.371,291.678 217.424 C 291.764 217.477,291.833 217.459,291.833 217.384 C 291.833 217.309,292.621 216.654,293.583 215.929 C 294.546 215.203,295.333 214.547,295.333 214.471 C 295.333 214.395,295.398 214.333,295.478 214.333 C 295.557 214.333,296.206 213.790,296.919 213.125 C 297.632 212.460,298.298 211.942,298.399 211.972 C 298.501 212.003,298.528 211.972,298.460 211.904 C 298.392 211.836,298.890 211.211,299.567 210.515 C 301.829 208.189,305.182 203.944,306.234 202.075 C 306.386 201.804,306.655 201.358,306.833 201.083 C 307.010 200.808,307.310 200.283,307.500 199.917 C 307.689 199.550,308.203 198.556,308.642 197.708 C 309.081 196.860,309.407 196.167,309.366 196.167 C 309.326 196.167,309.368 196.073,309.461 195.958 C 309.641 195.735,310.655 193.416,310.755 193.000 C 310.787 192.862,310.973 192.338,311.167 191.833 C 311.361 191.329,311.557 190.738,311.601 190.519 C 311.645 190.301,311.788 189.916,311.917 189.665 C 312.047 189.414,312.118 189.173,312.074 189.130 C 312.031 189.087,312.110 188.777,312.250 188.442 C 312.390 188.107,312.470 187.833,312.428 187.833 C 312.386 187.833,312.491 187.427,312.662 186.931 C 312.833 186.434,312.944 185.999,312.909 185.965 C 312.874 185.930,312.952 185.548,313.081 185.117 C 313.211 184.686,313.274 184.333,313.222 184.333 C 313.169 184.333,313.209 184.233,313.311 184.110 C 313.414 183.987,313.463 183.852,313.421 183.810 C 313.380 183.769,313.452 183.332,313.582 182.839 C 313.712 182.346,313.784 181.888,313.742 181.820 C 313.700 181.752,313.773 181.186,313.903 180.562 C 314.034 179.938,314.103 179.365,314.056 179.290 C 314.010 179.214,314.059 179.046,314.167 178.917 C 314.274 178.787,314.317 178.608,314.261 178.518 C 314.205 178.428,314.259 177.468,314.380 176.385 C 314.642 174.040,314.620 168.449,314.342 166.627 C 314.233 165.918,314.188 165.267,314.242 165.180 C 314.295 165.094,314.257 164.973,314.158 164.911 C 314.059 164.850,314.021 164.687,314.074 164.549 C 314.127 164.411,314.097 164.024,314.007 163.690 C 313.917 163.357,313.803 162.742,313.753 162.324 C 313.703 161.907,313.590 161.315,313.503 161.009 C 313.415 160.703,313.383 160.388,313.431 160.310 C 313.480 160.231,313.434 160.167,313.329 160.167 C 313.225 160.167,313.172 160.073,313.212 159.958 C 313.252 159.844,313.216 159.563,313.130 159.333 C 313.045 159.104,312.949 158.729,312.917 158.500 C 312.885 158.271,312.743 157.764,312.603 157.373 C 312.462 156.982,312.351 156.622,312.357 156.574 C 312.363 156.525,312.296 156.283,312.209 156.035 C 311.813 154.911,311.643 154.398,311.588 154.167 C 311.533 153.936,310.949 152.528,310.240 150.917 C 310.079 150.550,309.937 150.212,309.924 150.167 C 309.912 150.121,309.721 149.746,309.500 149.333 C 309.279 148.921,309.092 148.546,309.085 148.500 C 309.078 148.454,308.713 147.801,308.275 147.048 C 307.837 146.295,307.489 145.629,307.503 145.567 C 307.517 145.505,307.462 145.408,307.381 145.352 C 307.170 145.206,306.459 144.167,306.570 144.167 C 306.622 144.167,306.555 144.035,306.421 143.875 C 305.963 143.323,304.500 141.318,304.500 141.242 C 304.500 141.201,304.369 141.027,304.208 140.856 C 304.048 140.686,303.549 140.104,303.100 139.565 C 302.192 138.474,296.821 133.127,296.050 132.546 C 295.779 132.342,295.368 132.005,295.135 131.796 C 294.903 131.587,294.596 131.342,294.453 131.250 C 294.311 131.158,293.424 130.522,292.482 129.836 C 290.704 128.541,287.768 126.575,287.333 126.387 C 287.196 126.328,286.896 126.153,286.667 125.999 C 286.438 125.845,285.575 125.360,284.750 124.921 C 283.925 124.483,283.111 124.002,282.941 123.854 C 282.771 123.705,282.603 123.600,282.568 123.620 C 282.450 123.689,281.922 123.449,281.417 123.099 C 281.142 122.908,280.879 122.769,280.833 122.792 C 280.787 122.814,280.225 122.577,279.583 122.265 C 278.942 121.953,277.967 121.498,277.417 121.254 C 276.867 121.010,276.210 120.699,275.958 120.563 C 275.706 120.426,275.500 120.360,275.500 120.417 C 275.500 120.473,275.294 120.409,275.042 120.276 C 274.545 120.012,271.545 118.782,271.258 118.725 C 271.162 118.705,270.671 118.531,270.167 118.337 C 268.560 117.718,267.924 117.488,267.636 117.422 C 267.481 117.386,267.200 117.274,267.011 117.172 C 266.822 117.071,266.667 117.029,266.667 117.080 C 266.667 117.130,266.385 117.051,266.042 116.905 C 265.698 116.758,265.238 116.604,265.019 116.562 C 264.801 116.520,264.407 116.374,264.144 116.238 C 263.882 116.103,263.667 116.032,263.667 116.081 C 263.667 116.131,263.404 116.061,263.083 115.927 C 262.762 115.793,262.500 115.714,262.500 115.751 C 262.500 115.788,262.181 115.703,261.792 115.563 C 261.402 115.422,260.917 115.274,260.713 115.234 C 260.509 115.194,260.160 115.093,259.938 115.008 C 259.716 114.924,259.489 114.900,259.434 114.955 C 259.379 115.010,259.333 114.964,259.333 114.851 C 259.333 114.739,259.260 114.692,259.170 114.748 C 259.080 114.803,258.851 114.765,258.661 114.664 C 258.471 114.562,258.151 114.461,257.949 114.438 C 257.594 114.399,256.653 114.154,255.536 113.810 C 255.235 113.717,254.785 113.614,254.536 113.581 C 254.287 113.548,253.771 113.409,253.390 113.273 C 253.009 113.137,252.668 113.054,252.632 113.090 C 252.597 113.125,252.234 113.056,251.826 112.935 C 251.417 112.814,250.979 112.751,250.852 112.796 C 250.697 112.850,250.664 112.806,250.753 112.663 C 250.840 112.521,250.819 112.489,250.689 112.569 C 250.582 112.636,250.251 112.611,249.955 112.514 C 249.659 112.418,249.154 112.303,248.833 112.259 C 248.512 112.216,248.025 112.114,247.750 112.032 C 247.475 111.951,247.156 111.917,247.042 111.956 C 246.927 111.996,246.833 111.942,246.833 111.837 C 246.833 111.733,246.760 111.692,246.671 111.748 C 246.581 111.803,246.187 111.760,245.796 111.651 C 245.404 111.543,244.971 111.457,244.833 111.460 C 244.696 111.464,244.283 111.390,243.917 111.297 C 243.550 111.204,243.081 111.127,242.875 111.127 C 242.669 111.126,242.500 111.051,242.500 110.961 C 242.500 110.871,242.400 110.836,242.277 110.883 C 242.154 110.930,241.634 110.871,241.121 110.752 C 240.607 110.633,240.153 110.569,240.112 110.610 C 240.071 110.651,239.576 110.566,239.012 110.420 C 238.449 110.274,237.921 110.196,237.839 110.247 C 237.757 110.297,237.642 110.261,237.583 110.167 C 237.525 110.072,237.412 110.035,237.333 110.084 C 237.253 110.133,236.864 110.100,236.467 110.011 C 236.070 109.922,235.307 109.807,234.773 109.755 C 234.238 109.703,233.451 109.582,233.025 109.486 C 232.599 109.390,232.025 109.306,231.750 109.301 C 231.475 109.295,230.733 109.194,230.100 109.077 C 229.468 108.959,228.848 108.902,228.723 108.950 C 228.598 108.998,228.396 108.955,228.274 108.853 C 228.152 108.752,228.008 108.714,227.954 108.768 C 227.900 108.823,227.344 108.781,226.719 108.676 C 226.094 108.571,225.396 108.481,225.167 108.475 C 224.938 108.470,224.204 108.393,223.536 108.304 C 222.267 108.135,220.926 107.994,220.500 107.986 C 220.362 107.983,219.612 107.907,218.833 107.818 C 218.054 107.728,217.154 107.648,216.833 107.639 C 216.512 107.630,215.575 107.556,214.750 107.473 C 213.171 107.315,210.980 107.148,210.417 107.143 C 210.233 107.142,209.108 107.071,207.917 106.986 C 206.725 106.900,205.487 106.813,205.167 106.790 C 204.846 106.768,174.555 106.787,137.853 106.833 " stroke="none" fill="#fcfcfc" fill-rule="evenodd"></path><path id="path2" d="M399.833 199.917 L 399.833 399.833 199.875 399.875 L -0.083 399.917 199.958 399.958 L 400.000 400.000 400.000 200.000 C 400.000 90.000,399.962 0.000,399.917 0.000 C 399.871 0.000,399.833 89.962,399.833 199.917 M0.542 199.958 L 0.583 399.417 0.625 200.042 L 0.667 0.667 200.042 0.625 L 399.417 0.583 199.958 0.542 L 0.500 0.500 0.542 199.958 M205.794 106.785 C 206.001 106.824,206.301 106.823,206.460 106.781 C 206.620 106.739,206.450 106.707,206.083 106.709 C 205.717 106.711,205.586 106.745,205.794 106.785 M207.708 106.948 C 207.869 106.990,208.131 106.990,208.292 106.948 C 208.452 106.906,208.321 106.872,208.000 106.872 C 207.679 106.872,207.548 106.906,207.708 106.948 M122.049 135.457 C 122.764 135.489,123.889 135.488,124.549 135.457 C 125.210 135.425,124.625 135.400,123.250 135.400 C 121.875 135.400,121.335 135.426,122.049 135.457 M146.208 135.457 C 146.827 135.489,147.840 135.489,148.458 135.457 C 149.077 135.425,148.571 135.399,147.333 135.399 C 146.096 135.399,145.590 135.425,146.208 135.457 M109.375 135.621 C 109.719 135.657,110.281 135.657,110.625 135.621 C 110.969 135.585,110.688 135.556,110.000 135.556 C 109.313 135.556,109.031 135.585,109.375 135.621 M114.797 135.623 C 115.282 135.657,116.032 135.656,116.464 135.622 C 116.896 135.588,116.500 135.560,115.583 135.561 C 114.667 135.561,114.313 135.589,114.797 135.623 M153.292 135.622 C 153.681 135.657,154.319 135.657,154.708 135.622 C 155.098 135.587,154.779 135.558,154.000 135.558 C 153.221 135.558,152.902 135.587,153.292 135.622 M157.958 135.621 C 158.256 135.658,158.744 135.658,159.042 135.621 C 159.340 135.584,159.096 135.553,158.500 135.553 C 157.904 135.553,157.660 135.584,157.958 135.621 M104.708 135.788 C 105.052 135.824,105.615 135.824,105.958 135.788 C 106.302 135.752,106.021 135.723,105.333 135.723 C 104.646 135.723,104.365 135.752,104.708 135.788 M161.795 135.787 C 162.094 135.825,162.544 135.824,162.795 135.786 C 163.045 135.748,162.800 135.717,162.250 135.718 C 161.700 135.719,161.495 135.750,161.795 135.787 M100.625 135.954 C 100.923 135.991,101.410 135.991,101.708 135.954 C 102.006 135.917,101.763 135.887,101.167 135.887 C 100.571 135.887,100.327 135.917,100.625 135.954 M165.044 135.953 C 165.297 135.991,165.672 135.990,165.877 135.951 C 166.082 135.911,165.875 135.880,165.417 135.881 C 164.958 135.882,164.791 135.915,165.044 135.953 M170.292 136.118 C 170.498 136.157,170.835 136.157,171.042 136.118 C 171.248 136.078,171.079 136.045,170.667 136.045 C 170.254 136.045,170.085 136.078,170.292 136.118 M172.627 136.285 C 172.834 136.324,173.134 136.323,173.294 136.281 C 173.453 136.239,173.283 136.207,172.917 136.209 C 172.550 136.211,172.420 136.245,172.627 136.285 M174.708 136.448 C 174.869 136.490,175.131 136.490,175.292 136.448 C 175.452 136.406,175.321 136.372,175.000 136.372 C 174.679 136.372,174.548 136.406,174.708 136.448 M178.542 136.615 C 178.702 136.657,178.965 136.657,179.125 136.615 C 179.285 136.573,179.154 136.539,178.833 136.539 C 178.512 136.539,178.381 136.573,178.542 136.615 M180.208 136.782 C 180.369 136.823,180.631 136.823,180.792 136.782 C 180.952 136.740,180.821 136.705,180.500 136.705 C 180.179 136.705,180.048 136.740,180.208 136.782 M314.539 175.667 C 314.539 175.987,314.573 176.119,314.615 175.958 C 314.657 175.798,314.657 175.535,314.615 175.375 C 314.573 175.215,314.539 175.346,314.539 175.667 M232.042 194.615 C 232.202 194.657,232.465 194.657,232.625 194.615 C 232.785 194.573,232.654 194.539,232.333 194.539 C 232.012 194.539,231.881 194.573,232.042 194.615 M241.208 194.615 C 241.369 194.657,241.631 194.657,241.792 194.615 C 241.952 194.573,241.821 194.539,241.500 194.539 C 241.179 194.539,241.048 194.573,241.208 194.615 M170.245 216.042 L 169.250 217.083 170.292 216.089 C 171.259 215.164,171.410 215.000,171.286 215.000 C 171.261 215.000,170.792 215.469,170.245 216.042 M268.667 228.750 C 268.438 228.881,268.325 228.988,268.417 228.988 C 268.508 228.988,268.771 228.881,269.000 228.750 C 269.229 228.619,269.342 228.512,269.250 228.512 C 269.158 228.512,268.896 228.619,268.667 228.750 " stroke="none" fill="#898989" fill-rule="evenodd"></path><path id="path3" d="M399.333 199.917 L 399.333 399.333 199.875 399.375 L 0.417 399.417 199.958 399.458 L 399.500 399.500 399.500 200.000 C 399.500 90.275,399.462 0.500,399.417 0.500 C 399.371 0.500,399.333 90.237,399.333 199.917 M71.104 106.800 C 71.059 106.873,71.099 107.042,71.193 107.175 C 71.333 107.372,71.347 107.363,71.271 107.125 C 71.182 106.848,74.458 106.832,137.880 106.792 L 204.583 106.750 137.885 106.708 C 101.201 106.685,71.149 106.726,71.104 106.800 M83.664 121.585 C 84.328 122.384,84.384 122.435,84.203 122.081 C 84.108 121.897,83.855 121.598,83.640 121.416 C 83.264 121.097,83.265 121.103,83.664 121.585 M94.249 133.834 C 95.039 134.757,95.050 134.768,94.869 134.417 C 94.775 134.233,94.484 133.896,94.224 133.667 L 93.750 133.251 94.249 133.834 M132.292 135.291 C 134.056 135.318,136.944 135.318,138.708 135.291 C 140.473 135.264,139.029 135.242,135.500 135.242 C 131.971 135.242,130.527 135.264,132.292 135.291 M299.911 136.132 C 300.459 136.701,300.928 137.167,300.955 137.167 C 301.108 137.167,300.493 136.482,299.762 135.840 C 298.940 135.117,298.944 135.125,299.911 136.132 M114.377 135.453 C 114.631 135.491,115.006 135.490,115.211 135.451 C 115.416 135.411,115.208 135.380,114.750 135.381 C 114.292 135.382,114.124 135.415,114.377 135.453 M154.292 135.451 C 154.498 135.491,154.835 135.491,155.042 135.451 C 155.248 135.411,155.079 135.379,154.667 135.379 C 154.254 135.379,154.085 135.411,154.292 135.451 M107.794 135.618 C 108.001 135.658,108.301 135.656,108.460 135.615 C 108.620 135.573,108.450 135.540,108.083 135.542 C 107.717 135.544,107.586 135.578,107.794 135.618 M96.621 135.954 C 96.917 135.990,97.442 135.991,97.788 135.955 C 98.134 135.919,97.892 135.889,97.250 135.888 C 96.608 135.887,96.325 135.917,96.621 135.954 M167.961 135.954 C 168.261 135.991,168.711 135.990,168.961 135.952 C 169.212 135.914,168.967 135.884,168.417 135.885 C 167.867 135.886,167.662 135.917,167.961 135.954 M182.208 136.782 C 182.369 136.823,182.631 136.823,182.792 136.782 C 182.952 136.740,182.821 136.705,182.500 136.705 C 182.179 136.705,182.048 136.740,182.208 136.782 M314.553 170.167 C 314.553 170.762,314.584 171.006,314.621 170.708 C 314.658 170.410,314.658 169.923,314.621 169.625 C 314.584 169.327,314.553 169.571,314.553 170.167 M314.553 173.167 C 314.553 173.762,314.584 174.006,314.621 173.708 C 314.658 173.410,314.658 172.923,314.621 172.625 C 314.584 172.327,314.553 172.571,314.553 173.167 M236.542 194.619 C 236.794 194.658,237.206 194.658,237.458 194.619 C 237.710 194.581,237.504 194.550,237.000 194.550 C 236.496 194.550,236.290 194.581,236.542 194.619 M304.660 204.343 C 304.460 204.623,304.325 204.880,304.359 204.914 C 304.393 204.948,304.589 204.719,304.795 204.405 C 305.260 203.696,305.155 203.648,304.660 204.343 M299.406 210.708 L 298.917 211.250 299.458 210.760 C 299.963 210.304,300.077 210.167,299.948 210.167 C 299.919 210.167,299.675 210.410,299.406 210.708 M298.240 211.875 L 297.750 212.417 298.292 211.927 C 298.797 211.471,298.910 211.333,298.781 211.333 C 298.752 211.333,298.509 211.577,298.240 211.875 M170.330 216.125 L 168.917 217.583 170.375 216.170 C 171.177 215.393,171.833 214.737,171.833 214.712 C 171.833 214.591,171.642 214.771,170.330 216.125 M181.014 234.270 C 181.236 234.556,181.450 234.760,181.491 234.723 C 181.532 234.686,181.351 234.453,181.089 234.203 L 180.612 233.750 181.014 234.270 M229.681 290.603 C 229.902 290.889,230.117 291.093,230.158 291.056 C 230.199 291.020,230.018 290.786,229.755 290.537 L 229.279 290.083 229.681 290.603 " stroke="none" fill="#c4c4c4" fill-rule="evenodd"></path><path id="path4" d="M291.333 128.985 C 291.563 129.173,291.825 129.326,291.917 129.327 C 292.095 129.328,291.794 129.098,291.250 128.817 C 291.029 128.702,291.057 128.759,291.333 128.985 M119.461 135.454 C 119.761 135.491,120.211 135.490,120.461 135.452 C 120.712 135.414,120.467 135.384,119.917 135.385 C 119.367 135.386,119.162 135.417,119.461 135.454 M149.708 135.448 C 149.869 135.490,150.131 135.490,150.292 135.448 C 150.452 135.406,150.321 135.372,150.000 135.372 C 149.679 135.372,149.548 135.406,149.708 135.448 M112.958 135.618 C 113.165 135.657,113.502 135.657,113.708 135.618 C 113.915 135.578,113.746 135.545,113.333 135.545 C 112.921 135.545,112.752 135.578,112.958 135.618 M155.627 135.618 C 155.834 135.658,156.134 135.656,156.294 135.615 C 156.453 135.573,156.283 135.540,155.917 135.542 C 155.550 135.544,155.420 135.578,155.627 135.618 M238.042 194.615 C 238.202 194.657,238.465 194.657,238.625 194.615 C 238.785 194.573,238.654 194.539,238.333 194.539 C 238.012 194.539,237.881 194.573,238.042 194.615 " stroke="none" fill="#bcbcbc" fill-rule="evenodd"></path></g></svg>